<?xml version="1.0" standalone="no"?>
<!DOCTYPE svg PUBLIC "-//W3C//DTD SVG 20010904//EN"
 "http://www.w3.org/TR/2001/REC-SVG-20010904/DTD/svg10.dtd">
<svg version="1.0" xmlns="http://www.w3.org/2000/svg"
 width="558.000000pt" height="558.000000pt" viewBox="0 0 558.000000 558.000000"
 preserveAspectRatio="xMidYMid meet">
<metadata>
Created by potrace 1.11, written by Peter Selinger 2001-2013
</metadata>
<g transform="translate(0.000000,558.000000) scale(0.100000,-0.100000)"
fill="#000000" stroke="none">
<path d="M0 2790 l0 -2790 2790 0 2790 0 0 2790 0 2790 -2790 0 -2790 0 0
-2790z m2895 1882 c104 -49 154 -78 161 -94 13 -25 404 -1094 404 -1103 0 -3
-91 -5 -203 -5 l-203 0 -244 668 c-134 367 -246 673 -248 679 -2 7 38 -7 90
-31 51 -24 161 -76 243 -114z m-141 -566 c141 -384 256 -701 256 -704 0 -3
335 -2 745 2 410 4 745 5 745 2 0 -2 -268 -204 -595 -447 -327 -244 -595 -450
-595 -456 0 -7 102 -344 226 -749 124 -405 224 -738 222 -739 -2 -2 -280 199
-618 447 -338 247 -620 452 -627 455 -6 2 -283 -187 -614 -421 -331 -235 -604
-424 -607 -421 -3 3 90 323 207 711 117 388 210 711 208 718 -3 6 -273 210
-600 451 l-595 440 741 8 c408 4 745 11 748 15 4 4 112 311 242 682 259 742
248 712 253 708 1 -2 118 -318 258 -702z m2178 -929 c76 -39 137 -75 135 -79
-1 -4 -263 -197 -582 -428 -319 -232 -581 -424 -583 -428 -1 -5 101 -343 228
-752 126 -409 229 -745 227 -746 -1 -1 -115 56 -253 127 l-250 129 -220 727
c-120 401 -219 734 -219 741 0 6 265 209 590 451 l589 438 101 -54 c55 -29
162 -86 237 -126z m-2219 -1500 c104 -77 185 -143 180 -147 -8 -8 -1038 -729
-1060 -743 -14 -9 -465 213 -460 226 6 18 1131 816 1141 810 6 -4 96 -69 199
-146z"/>
</g>
</svg>
